<?xml version="1.0" encoding="UTF-8" standalone="no"?>
<!-- Created with Inkscape (http://www.inkscape.org/) -->

<svg
   xmlns:dc="http://purl.org/dc/elements/1.1/"
   xmlns:cc="http://creativecommons.org/ns#"
   xmlns:rdf="http://www.w3.org/1999/02/22-rdf-syntax-ns#"
   xmlns:svg="http://www.w3.org/2000/svg"
   xmlns="http://www.w3.org/2000/svg"
   xmlns:xlink="http://www.w3.org/1999/xlink"
   xmlns:sodipodi="http://sodipodi.sourceforge.net/DTD/sodipodi-0.dtd"
   xmlns:inkscape="http://www.inkscape.org/namespaces/inkscape"
   width="168"
   height="168"
   id="svg2991"
   version="1.1"
   inkscape:version="0.48.3.1 r9886"
   sodipodi:docname="ic_launcher.svg"
   inkscape:export-filename="/mnt/DATA/proj/eclipse/comiz/doc/ic_launcher.png"
   inkscape:export-xdpi="38.57"
   inkscape:export-ydpi="38.57">
  <defs
     id="defs2993">
    <linearGradient
       id="linearGradient6112">
      <stop
         style="stop-color:#00ff00;stop-opacity:1;"
         offset="0"
         id="stop6114" />
      <stop
         style="stop-color:#33b5e5;stop-opacity:1;"
         offset="1"
         id="stop6116" />
    </linearGradient>
    <linearGradient
       id="linearGradient6104">
      <stop
         style="stop-color:#33b5e5;stop-opacity:1;"
         offset="0"
         id="stop6106" />
      <stop
         style="stop-color:#00ff00;stop-opacity:1;"
         offset="1"
         id="stop6108" />
    </linearGradient>
    <inkscape:path-effect
       effect="spiro"
       id="path-effect6076"
       is_visible="true" />
    <linearGradient
       inkscape:collect="always"
       xlink:href="#linearGradient6104"
       id="linearGradient6110"
       x1="456.73398"
       y1="-533.15564"
       x2="525.573"
       y2="-533.15564"
       gradientUnits="userSpaceOnUse"
       gradientTransform="translate(-445,523)" />
    <linearGradient
       inkscape:collect="always"
       xlink:href="#linearGradient6112"
       id="linearGradient6118"
       x1="534.92255"
       y1="-533.33966"
       x2="605.47821"
       y2="-533.33966"
       gradientUnits="userSpaceOnUse"
       gradientTransform="translate(-445,523)" />
  </defs>
  <sodipodi:namedview
     id="base"
     pagecolor="#ffffff"
     bordercolor="#666666"
     borderopacity="1.0"
     inkscape:pageopacity="0.0"
     inkscape:pageshadow="2"
     inkscape:zoom="1"
     inkscape:cx="393.91247"
     inkscape:cy="48.33331"
     inkscape:current-layer="layer1"
     showgrid="true"
     inkscape:document-units="px"
     inkscape:grid-bbox="true"
     inkscape:window-width="1366"
     inkscape:window-height="689"
     inkscape:window-x="0"
     inkscape:window-y="24"
     inkscape:window-maximized="1" />
  <metadata
     id="metadata2996">
    <rdf:RDF>
      <cc:Work
         rdf:about="">
        <dc:format>image/svg+xml</dc:format>
        <dc:type
           rdf:resource="http://purl.org/dc/dcmitype/StillImage" />
        <dc:title></dc:title>
      </cc:Work>
    </rdf:RDF>
  </metadata>
  <g
     id="layer1"
     inkscape:label="Layer 1"
     inkscape:groupmode="layer"
     transform="translate(0,104.00002)">
    <path
       style="fill:url(#linearGradient6118);fill-opacity:1;stroke:#000000;stroke-width:0.30607194px;stroke-linecap:butt;stroke-linejoin:round;stroke-opacity:1"
       d="M 160.32516,-57.0132 C 116.55157,-31.39122 92.36913,-12.98103 90.07556,33.19842 97.9734,18.32916 110.93478,6.2978899 123.56881,-6.7025501 113.49799,7.1860199 100.62799,20.49083 95.12403,36.33387 146.05324,19.00212 147.49162,-12.17322 160.32516,-57.0132 z"
       id="path6062"
       inkscape:connector-curvature="0"
       sodipodi:nodetypes="ccccc" />
    <path
       style="fill:url(#linearGradient6110);fill-opacity:1;stroke:#000000;stroke-width:0.30607194px;stroke-linecap:butt;stroke-linejoin:round;stroke-opacity:1"
       d="M 11.88703,-57.53401 C 22.67523,-7.9736601 32.68091,20.72497 75.87382,37.2227 64.18582,25.10405 56.76585,9.0512399 48.32296,-6.9908301 58.40489,6.8896799 67.06399,23.25045 80.41996,33.39508 79.73197,-20.39805 50.53872,-31.43095 11.88703,-57.53401 z"
       id="path6062-5"
       inkscape:connector-curvature="0"
       sodipodi:nodetypes="ccccc"
       inkscape:transform-center-x="-9.153495"
       inkscape:transform-center-y="-26.15564" />
    <path
       style="fill:#33b5e5;fill-opacity:1;stroke:#000000;stroke-width:0.31578085px;stroke-linecap:butt;stroke-linejoin:miter;stroke-opacity:1"
       inkscape:transform-center-x="4.1064206"
       inkscape:transform-center-y="58.605247"
       d="m 85.35052,-2.6833601 c 8.291045,-5.8969404 14.156653,-15.1037219 15.99752,-25.1100459 1.84087,-10.006325 -0.36403,-20.697843 -6.01353,-29.159434 -4.660782,-6.980732 -11.508551,-12.362963 -19.1214,-15.89822 -4.192019,-1.946691 -8.662564,-3.367108 -13.263495,-3.807628 -4.600931,-0.44052 -9.342028,0.12697 -13.567966,1.998885 -4.225939,1.871915 -7.905952,5.095289 -9.99189,9.219787 -2.085938,4.124499 -2.477922,9.150261 -0.718589,13.424296 1.643306,3.992165 4.980735,7.077864 8.651368,9.350372 3.670633,2.272507 7.721039,3.845629 11.622562,5.693858 7.318925,3.467121 14.296288,8.058741 19.19922,14.50458 4.313776,5.671281 6.861772,12.6664256 7.2062,19.7835499"
       id="path6074" />
  </g>
</svg>
